<?xml version="1.0" encoding="UTF-8"?>
<svg width="40px" height="40px" viewBox="0 0 40 40" version="1.1" xmlns="http://www.w3.org/2000/svg" xmlns:xlink="http://www.w3.org/1999/xlink">
    <title>Amex</title>
    <g id="Amex" stroke="none" stroke-width="1" fill="none" fill-rule="evenodd">
        <g id="AXP_BlueBoxLogo_Alternate_REGULARscale_RGB_DIGITAL_700x700" transform="translate(4, 4)" fill-rule="nonzero">
            <polygon id="polygon4" fill="#FFFFFF" points="32 32 16.0958086 32 0 32 0 15.8409609 0 0 15.8815352 0 32 0 32 15.9984004"></polygon>
            <path d="M32,32 L32,26.9294687 L28.1394609,26.9294687 L26.1518711,24.7317109 L24.1542422,26.9294687 L11.4257305,26.9294687 L11.4257305,16.6865273 L7.31750488,16.6865273 L12.4133125,5.15417578 L17.3277422,5.15417578 L19.0820508,9.10496093 L19.0820508,5.15417578 L25.1651836,5.15417578 L26.2213789,8.13132812 L27.2844805,5.15417578 L32,5.15417578 L32,0 L0,0 L0,32 L32,32 L32,32 Z M28.7897617,25.6470391 L32,25.6470391 L27.7534063,21.1437441 L32,16.6916484 L28.840832,16.6916484 L26.2183047,19.5574394 L23.6209922,16.6916484 L20.4099844,16.6916484 L24.6317461,21.1693438 L20.4099844,25.6470391 L23.5316484,25.6470391 L26.1670391,22.7557148 L28.7897617,25.6470391 L28.7897617,25.6470391 Z M29.5408008,21.1475195 L32,23.7637754 L32,18.5530879 L29.5408008,21.1475195 L29.5408008,21.1475195 Z M15.2286719,23.5745273 L15.2286719,22.1799687 L20.2819219,22.1799687 L20.2819219,20.1585898 L15.2286719,20.1585898 L15.2286719,18.7642246 L20.409793,18.7642246 L20.409793,16.6916484 L12.7850234,16.6916484 L12.7850234,25.6470391 L20.409793,25.6470391 L20.409793,23.5745273 L15.2286719,23.5745273 L15.2286719,23.5745273 Z M29.5819531,15.3920645 L32,15.3920645 L32,6.43667187 L28.2386562,6.43667187 L26.2300156,12.0144648 L24.2343047,6.43667187 L20.4091523,6.43667187 L20.4091523,15.3920645 L22.8270078,15.3920645 L22.8270078,9.12332813 L25.129918,15.3920645 L27.2791016,15.3920645 L29.5819531,9.11040039 L29.5819531,15.3920645 L29.5819531,15.3920645 Z M17.6585625,15.3920645 L20.4091523,15.3920645 L16.4561914,6.43667188 L13.3089297,6.43667188 L9.35558496,15.3920645 L12.0422422,15.3920645 L12.7843828,13.6010234 L16.9037461,13.6010234 L17.6585625,15.3920645 L17.6585625,15.3920645 Z M16.0595195,11.5923848 L13.6286094,11.5923848 L14.8440977,8.66271875 L16.0595195,11.5923848 L16.0595195,11.5923848 Z" id="path6" fill="#006FCF"></path>
        </g>
    </g>
</svg>